<svg version="1.1" xmlns="http://www.w3.org/2000/svg" xmlns:xlink="http://www.w3.org/1999/xlink" width="63.08992" height="111.341" viewBox="0,0,63.08992,111.341"><g transform="translate(-208.66053,-117.023)"><g data-paper-data="{&quot;isPaintingLayer&quot;:true}" fill-rule="nonzero" stroke="none" stroke-width="1" stroke-linecap="butt" stroke-linejoin="miter" stroke-miterlimit="10" stroke-dasharray="" stroke-dashoffset="0" style="mix-blend-mode: normal"><path d="M238.744,129.857c0,0 14.144,14.343 14.288,15.607c-1.484,0.044 -24.456,4.122 -24.456,4.122l-19.896,-5.242z" fill="#82001e"/><path d="M253.66,123.194c0,0 -9.8,1.524 -11.2,1.424c-3.008,-0.208 -14.344,-0.704 -15.036,-1.504c-0.404,-0.489 -0.152,-5.759 -0.152,-6.091l26.156,0.4c0.14,0.656 0.232,5.771 0.232,5.771z" fill="#be0a3c"/><path d="M208.68,144.348l18.744,-21.21c0,0 12.692,3.601 15,6.123c-4.224,2.797 -33.744,15.087 -33.744,15.087z" fill="#ffc800"/><path d="M271.568,145.288c-1.348,0.184 -15.456,2.257 -15.456,2.257l-8.424,-2.429c0,0 -14.488,-15.635 -20.332,-22.01c2,-0.705 26.304,0.084 26.304,0.084c0,0 15.612,18.324 17.908,22.098z" fill="#f01446"/><path d="M271.224,227.856l-22.672,0.5l-11.376,-37.766l10.512,-45.474l23.88,0.172c0,0 0.312,52.653 0.12,62.106c-0.08,3.886 -0.464,20.462 -0.464,20.462z" fill="#be0a3c"/><path d="M248.56,228.364c0,0 -10.168,-0.092 -12.288,-0.176c-4.58,-0.18 -9.148,-0.244 -13.728,-0.36c-2.276,-0.06 -4.536,-0.264 -6.8,-0.352c-1.188,-0.048 -3.924,-0.108 -3.924,-0.108c0,0 -0.3,-5.531 -0.336,-6.804c-0.068,-2.389 -0.076,-4.766 -0.204,-7.167c-0.512,-9.665 -2.856,-64.375 -2.6,-69.049c5.008,-0.096 39.008,0.768 39.008,0.768z" fill="#f01446"/><path d="M241.088,216.494c0,0 -6.432,-0.068 -7.772,-0.128c-2.896,-0.132 -5.788,-0.176 -8.684,-0.26c-1.436,-0.04 -2.864,-0.188 -4.296,-0.252c-0.752,-0.032 -1.984,0.272 -2.48,-0.572c-0.496,-0.845 -2.164,-59.081 -2,-62.43c3.172,-0.068 24.672,0.552 24.672,0.552z" fill="#ffffff"/></g></g></svg>