<svg version="1.1" xmlns="http://www.w3.org/2000/svg" xmlns:xlink="http://www.w3.org/1999/xlink" width="424.38578" height="301.22116" viewBox="0,0,424.38578,301.22116"><g transform="translate(-26.42314,-21.16345)"><g data-paper-data="{&quot;isPaintingLayer&quot;:true}" fill="#9966ff" fill-rule="nonzero" stroke="none" stroke-width="0.5" stroke-linecap="butt" stroke-linejoin="miter" stroke-miterlimit="10" stroke-dasharray="" stroke-dashoffset="0" style="mix-blend-mode: normal"><path d="M79.36139,119.60094c-2.5,0 -2.5,-2.5 -2.5,-2.5v-1.86809c0,-4.65314 0.70652,-9.95506 0.03228,-14.54425c-0.14311,-0.97411 -0.8141,-1.8249 -0.93404,-2.80213c-0.34764,-2.83226 0.30022,-5.72504 -0.02011,-8.56051c-0.21486,-1.90185 -0.42697,-3.71921 -0.59573,-5.53355c-0.30936,-0.17245 -0.57829,-0.40868 -0.78902,-0.69091l-2.90991,-3.81507c-10.41665,-10.42286 -17.61271,-23.32254 -26.33993,-35.08289c-4.69552,-6.32744 -9.64542,-12.12402 -12.21533,-19.71647c0,0 -0.79057,-2.37171 1.58114,-3.16228c2.37171,-0.79057 3.16228,1.58114 3.16228,1.58114c2.3135,7.07152 7.13697,12.45595 11.48711,18.31798c8.60105,11.59034 15.69498,24.30071 25.92088,34.60264c0.12754,-0.29618 0.32076,-0.60294 0.61347,-0.85264l0.16907,-0.59176c0,0 0.6868,-2.40381 3.09061,-1.71701c0.77104,0.2203 1.2241,0.61724 1.48384,1.05486c0.17735,-0.7984 0.73181,-1.35286 0.73181,-1.35286l0.20181,0.83372c0,-4.93146 0.2415,-9.47268 0.95278,-14.31612c0.26824,-1.82657 -0.46203,-4.27366 0.08854,-6.02327c0.36683,-1.16571 1.49509,-1.96497 1.97453,-3.08906c0.51385,-1.20476 0.36075,-2.64754 0.96736,-3.80836c2.44406,-4.67699 6.92827,-8.10821 11.02746,-11.19092c0,0 2,-1.5 3.5,0.5c1.5,2 -0.5,3.5 -0.5,3.5c-3.35987,2.51256 -7.57028,5.47011 -9.52152,9.35806c-0.56414,1.12408 -0.40307,2.50895 -0.90073,3.66399c-0.40503,0.94005 -1.41476,1.55219 -1.76164,2.51521c-0.58583,1.62638 0.3269,3.4731 0.08854,5.18526c-0.64805,4.65494 -0.91531,8.96156 -0.91531,13.70521l-1.66628,2.70181c0,0 -1.76777,1.76777 -3.53553,0c-0.17671,-0.17671 -0.3181,-0.35343 -0.42945,-0.52838c-0.02686,0.23328 -0.0692,0.38146 -0.0692,0.38146l-0.81305,2.84569c0.10289,3.48934 0.50898,6.68286 0.89708,10.23183c0.29902,2.73447 -0.36806,5.52361 -0.02011,8.25229c0.12454,0.97666 0.79824,1.82697 0.93404,2.80213c0.68091,4.8893 0.03228,10.39794 0.03228,15.34517v1.86809c0,0 0,2.5 -2.5,2.5z"/><path d="M143.81045,102.45836h2.47235c4.17215,0.01665 6.86235,-0.4433 10.74774,-1.7398c0.93395,-0.31164 1.84044,-0.72303 2.80213,-0.93404c0.50947,-0.11179 1.18698,0.3357 1.5646,-0.02411c0.27264,-0.25978 -0.3512,-0.67238 -0.45316,-1.0349c-0.25987,-0.92391 -0.17721,-1.96273 -0.62828,-2.80989c-0.39786,-0.74724 -1.38473,-1.04776 -1.81414,-1.77733c-0.40127,-0.68175 -0.34427,-3.55244 -2.00955,-3.69554l-1.23962,1.85943c-0.44514,0.68925 -1.2201,1.14551 -2.10163,1.14551c-1.38071,0 -2.5,-1.11929 -2.5,-2.5c0,-0.5406 0,-2.01985 0,-3.35123l-0.93072,0.22823c-4.06886,0.00704 -7.8331,0.8733 -11.87825,1.18991c-1.00168,0.0784 -2.23223,-0.39442 -3.00393,0.24899c-0.44393,0.37013 1.00474,0.72852 1.1657,1.28364c0.23014,0.79373 -0.33325,1.6931 -0.07499,2.47813c0.29173,0.88675 1.16775,1.46516 1.63763,2.27178c1.63367,2.80442 2.72494,5.32269 4.48083,7.81837c0.73743,-0.65715 1.7633,-0.65715 1.7633,-0.65715zM155.6509,85.34343c0,0.1613 0,0.3226 0,0.4839c2.07296,0.27565 4.09801,1.28487 5.82279,2.45312c0.95357,0.64588 0.66605,2.23286 1.27112,3.21283c0.48059,0.77836 1.52785,1.13336 1.92204,1.95885c0.82583,1.7294 2.1669,7.26158 0.78665,9.23183c-0.84929,1.21232 -2.6682,1.28711 -4.03967,1.84398c-5.02966,2.04223 -9.709,2.91128 -15.13101,2.93042h-1.61654c0.27251,0.35896 0.60161,0.64367 1.03493,0.79457c1.75058,0.60961 5.04271,-0.43445 6.65912,-0.99605c0,0 2.37171,-0.79057 3.16228,1.58114c0.79057,2.37171 -1.58114,3.16228 -1.58114,3.16228c-2.71714,0.87675 -7.31135,2.06995 -10.15368,0.87203c-2.38858,-1.00668 -3.25808,-3.57471 -4.71282,-5.39495c-2.4659,-3.08544 -3.88448,-6.20058 -5.83319,-9.6706c-0.64279,-1.14459 -1.67984,-2.08832 -2.09854,-3.33249c-0.33246,-0.9879 0.03324,-2.08943 -0.07499,-3.12614c-0.1515,-1.45123 -1.61326,-3.18074 -0.70239,-4.32062c1.47895,-1.85081 4.2221,-2.20506 6.4829,-2.91329c1.21797,-0.38155 2.55336,-0.12789 3.81619,-0.31307c2.80216,-0.4109 5.6122,-0.94406 8.44432,-0.93901l3.4353,-0.87813c0,0 2.42536,-0.60634 3.0317,1.81902c0.11914,0.47655 0.12123,0.88287 0.04768,1.22816c0.02697,0.19017 0.02697,0.31222 0.02697,0.31222z"/><path d="M220.40209,56.69019c2.5,0 2.5,2.5 2.5,2.5v0.93404c0,10.77377 0.0606,21.54979 -0.06477,32.32288c-0.98442,1.76335 -1.22317,4.2483 -2.95327,5.29005c-0.92832,0.55897 -9.93534,0.25444 -11.44859,0.16966c-7.30278,-0.40917 -16.70051,0.01074 -23.4594,-2.86268c-1.97536,-0.83979 -4.41071,-1.08791 -5.85865,-2.67245c-1.19853,-1.31161 -0.44519,-7.93542 -0.44519,-9.83039c0,-9.34044 0,-18.68089 0,-28.02133c0,0 0,-2.5 2.5,-2.5c2.5,0 2.5,2.5 2.5,2.5c0,9.34044 0,18.68089 0,28.02133c0,1.86809 0.19783,3.74668 0,5.60427c-0.05112,0.48004 -0.8361,1.09488 -0.44519,1.37815c0.97269,0.70482 2.35395,0.4941 3.50464,0.83878c6.86256,2.05562 14.78431,2.14774 21.98385,2.55217c1.63387,0.09178 3.27442,0.0333 4.9073,0.14125c1.21866,0.08057 2.50557,0.87781 3.63936,0.42379c0.70405,-0.28193 0.46978,-1.44222 0.70467,-2.16334c-0.15182,-10.39495 -0.06477,-20.79617 -0.06477,-31.19214v-0.93404c0,0 0,-2.5 2.5,-2.5z"/><path d="M394.13434,92.51365c-2.5,0 -2.5,-2.5 -2.5,-2.5v-0.93404c0,-2.38897 0.00682,-4.77795 0.01873,-7.1669c0.00344,-0.69037 0.44453,-1.5357 0.00869,-2.07112c-0.2883,-0.35418 -0.80902,0.48572 -1.2636,0.52949c-1.34103,0.12911 -2.70175,0.12173 -4.04164,-0.01873c-2.65472,-0.2783 -5.18366,-1.27661 -7.77324,-1.924c-4.93967,-1.26268 -12.08234,-2.06971 -16.76022,0.63532c-0.24272,0.14035 -0.47463,0.30145 -0.6953,0.48073c-0.85043,1.99135 -1.50483,4.07235 -2.0477,6.1664c-0.27987,1.07957 -0.27332,2.22903 -0.43101,3.33392c0.07797,0.21285 0.16674,0.4185 0.26654,0.61558c0.70714,1.39633 5.05957,2.58042 5.41593,2.67709c7.72846,2.09656 17.07494,1.52519 23.84635,-2.59937c0,0 2.14373,-1.28624 3.42997,0.85749c1.28624,2.14373 -0.85749,3.42997 -0.85749,3.42997c-1.54618,0.91575 -2.9686,2.08351 -4.63855,2.74725c-6.31219,2.50885 -16.75627,2.18476 -23.11941,0.38199c-1.73709,-0.49214 -3.98428,-1.20447 -5.80776,-2.37829c-0.39173,0.86872 -1.26534,1.4734 -2.28017,1.4734c-1.12263,0 -2.07243,-0.73996 -2.38828,-1.75875l-1.1426,-3.40193l0.07125,-0.02393l-0.13381,-0.19489c-0.24625,-1.70161 -0.4925,-3.40321 -0.73875,-5.10482c-0.54807,-2.77303 -0.55548,-5.62731 -0.93765,-8.42803c-0.37214,-2.72719 -2.07887,-5.48754 -2.75066,-8.16519c-0.60833,-2.4247 -0.99694,-4.90082 -1.59856,-7.3272c-0.37922,-1.52943 -0.85018,-3.03935 -1.13203,-4.58969c-0.12952,-0.71245 0.62301,-2.24806 -0.09693,-2.17022c-0.95484,0.10324 -1.0149,1.64219 -1.65354,2.35948c-2.19489,2.46523 -4.66384,4.6744 -7.08382,6.91908c-0.02893,0.02684 -7.56182,6.66698 -7.59392,6.69391c-1.31966,1.10732 -2.62312,2.24243 -4.0366,3.22718c-0.6332,0.44114 -1.64389,0.38865 -2.07358,1.02969c-0.30609,0.45665 0.26762,1.07347 0.29581,1.62249c0.05593,1.08922 0.18653,2.20576 -0.04449,3.27167c-0.25242,1.16468 -0.82163,2.53352 -1.5098,3.91956l-1.32885,4.65096c-0.28053,1.07387 -1.25721,1.86634 -2.41899,1.86634c-1.1246,0 -2.07576,-0.74256 -2.38994,-1.76412l-0.90203,-2.70608c-2.30573,-5.97229 -4.97148,-11.72611 -7.42689,-17.62875c-3.59563,-8.64366 -6.43775,-17.5181 -10.24656,-26.08793c0,0 -1.01535,-2.28453 1.26918,-3.29988c2.28453,-1.01535 3.29988,1.26918 3.29988,1.26918c3.82816,8.61336 6.6872,17.53238 10.30241,26.21856c1.93567,4.65079 3.99663,9.21266 5.91477,13.85817c0.22049,-0.39844 0.42564,-0.8024 0.5258,-1.2351c0.53128,-2.29521 -1.13092,-3.89838 0.25132,-6.31438c1.53614,-2.685 4.93507,-3.73555 7.30278,-5.72626c3.78184,-3.17969 7.40632,-6.53213 10.94194,-9.97946c1.71197,-1.66922 7.11808,-7.53967 9.75222,-7.03097c3.07295,0.59344 4.39329,8.27284 4.93257,10.41387c0.60466,2.40056 0.98209,4.85437 1.58035,7.25653c0.7174,2.88053 2.41817,5.71101 2.8536,8.64761c0.15043,1.01451 0.24064,2.0377 0.32163,3.06201c0.70746,-1.36113 1.62105,-2.59042 2.71124,-3.58604c0.76381,-1.44446 1.58172,-2.86648 2.24934,-4.35465c1.62631,-3.62512 1.45109,-7.98431 3.04041,-11.611c1.10451,-2.5204 2.44887,-3.6055 4.2547,-5.4266l0.93404,-0.93404c0,0 1.76777,-1.76777 3.53553,0c1.76777,1.76777 0,3.53553 0,3.53553l-0.93404,0.93404c-4.29761,4.25417 -3.84353,9.30808 -5.86634,14.57564c4.95612,-0.94562 10.57085,-0.23489 14.9794,0.84616c4.09726,1.02432 6.54828,1.52701 10.60219,1.79344c1.45447,0.09559 3.28594,-0.47659 4.34066,0.52949c2.96402,2.82733 1.89551,9.5702 1.89551,13.17905v0.93404c0,0 0,2.5 -2.5,2.5z"/><path d="M448.30892,69.76681c2.5,0 2.5,2.5 2.5,2.5v0.93404c0,7.73336 -1.45387,15.12299 -3.77775,22.41706h0.04158v2.80213c0,1.38071 -1.11929,2.5 -2.5,2.5c-0.93896,0 -1.75701,-0.51764 -2.18436,-1.28311l-1.26408,-2.17095c-4.00128,-4.5177 -6.26641,-9.4908 -9.70959,-14.29367c-2.60901,-3.63929 -8.01971,-3.67666 -11.30923,-6.54742c0.1002,1.35389 -0.12002,2.73971 -0.12002,4.10359c0,3.33333 0.65372,6.7314 0,10v5c0,1.38071 -1.11929,2.5 -2.5,2.5c-1.38071,0 -2.5,-1.11929 -2.5,-2.5v-5c-0.52705,-1.58114 0,-3.33333 0,-5c0,-3.33333 -0.37901,-6.68828 0,-10c0,-3.33333 0,-6.66667 0,-10c0,0 0,-2.5 2.5,-2.5c2.5,0 2.5,2.5 2.5,2.5c0,1.92936 0,3.85872 0,5.78808c2.84158,0.91454 6.12373,2.73101 7.73289,3.53919c3.02793,1.52074 5.51259,2.25841 7.59536,4.98642c2.90062,3.79922 4.88195,7.84985 7.62035,11.66308c0.06271,-0.17438 0.12126,-0.34853 0.17243,-0.52249c1.73916,-5.91263 2.70243,-11.81022 2.70243,-17.98192v-0.93404c0,0 0,-2.5 2.5,-2.5z"/><path d="M135.29389,256.90303c-2.49757,-0.11016 -2.38741,-2.60773 -2.38741,-2.60773l0.12329,-2.69128c1.78256,-10.64308 0.80833,-21.90673 0.80833,-32.69224c0,-12.48622 0.93404,-24.88503 0.93404,-37.36177c0,0 0,-2.5 2.5,-2.5c2.5,0 2.5,2.5 2.5,2.5c0,12.47754 -0.93404,24.87566 -0.93404,37.36177c0,10.965 0.95956,22.39101 -0.83566,33.21436l-0.10081,2.38949c0,0 -0.11016,2.49757 -2.60773,2.38741z"/><path d="M208.56355,295.84525c3.6567,2.25768 2.36349,4.80764 -0.8578,7.38905c-1.89184,1.51605 -7.01785,1.5756 -8.86959,1.74983c-3.75543,0.34114 -7.51031,0.76558 -11.2663,1.21373c0.07032,0.97301 0.03967,1.91612 -0.48596,2.67987c-1.27536,1.85312 -3.55512,2.86372 -5.64256,3.70229c-0.25409,0.10207 -9.85691,1.32502 -10.41837,1.3973c-6.49255,0.83587 -13.04342,1.0351 -19.59008,1.23238c-6.67322,2.10594 -13.58814,4.16626 -20.27205,5.17404c-4.97035,0.74941 -10.14525,0.89124 -15.15405,1.32678c-5.07221,0.43925 -10.07952,0.53713 -15.17068,0.54853c-1.11849,0.0025 -2.28882,0.30278 -3.3553,-0.03435c-1.79691,-0.56803 -3.73626,-1.22657 -5.01442,-2.61145c-1.30842,-1.41767 -1.4937,-3.55824 -2.29815,-5.31169c-0.6486,-1.41375 -1.18599,-2.72693 -1.61895,-4.01619c-2.41478,-0.64631 -4.82023,-1.33412 -7.19997,-1.92431c-0.33182,-0.08229 -9.79668,-2.42495 -9.96321,-2.48589c-0.1006,-0.03681 -6.18975,-3.03536 -8.41653,-4.13557c-0.65376,0 -1.30751,-0.00001 -1.96127,-0.00001c-8.32995,0 -16.67113,0.1261 -25,0c-2.32692,-0.03523 -9.67334,1.13042 -9.58438,-4.29948c0.03399,-2.07443 2.25734,-3.55666 3.83942,-4.89885c3.17717,-2.69541 9.12472,-4.37542 13.00489,-5.53938c4.3251,-1.29742 8.85307,-2.22546 13.48323,-2.8674c0.65613,-0.808 1.39682,-1.56975 2.00696,-2.4029c4.34114,-5.70732 10.4062,-10.00566 17.26234,-12.3029c0.37546,-0.97453 1.38555,-1.42647 1.38555,-1.42647l2.84305,-1.2687c4.04807,-1.3256 10.05059,-3.6345 13.9564,-0.08516c0.31119,0.28279 0.49851,0.64811 0.63529,1.0488c1.5311,0.04604 3.03063,0.0871 4.46503,0.08706c5.83849,-0.00015 14.832,-1.62023 19.93381,2.0883c1.37055,0.99626 2.31157,2.41149 3.18867,3.8964c4.87202,-0.30235 9.73515,-0.73233 14.56697,-1.29913c8.27563,-0.97078 16.41595,-2.62443 24.74515,-3.09098c1.27758,-0.07098 10.45614,-0.65959 11.17004,-0.32885c2.72658,1.26316 4.19794,4.36413 5.18073,7.60581c2.31905,-0.2241 4.49888,-0.43419 4.52629,-0.43364c1.67709,0.03415 3.89761,-0.58503 4.98442,0.69272c0.70885,0.83339 0.93411,1.9446 0.9474,3.10517c0.39608,0.04711 0.79364,0.07694 1.19226,0.0943l-0.01975,-0.05924l2.74677,-0.91559c0.2642,-0.09499 0.54902,-0.14675 0.84593,-0.14675c1.38071,0 2.5,1.11929 2.5,2.5c0,0.57191 -0.19204,1.09897 -0.51515,1.5202l-1.16112,1.54816c2.34621,-0.04482 4.69274,-0.10021 7.03369,0.03591c2.2461,0.1306 4.95706,-0.72269 6.71522,0.6812c1.45158,1.15909 0.85588,3.62999 1.00291,5.48173c0.12585,1.58497 0.35663,3.27281 -0.18923,4.76613c-0.04004,0.10954 -0.08613,0.21583 -0.13757,0.31918zM92.22506,303.4156c0.08147,0.99902 0.21889,1.91435 0.41291,2.8027c1.42917,0.32651 2.85948,0.61968 4.28994,0.86218c6.43986,1.09173 13.22138,1.22281 19.72773,1.82805c5.67542,0.52795 11.24731,1.0702 16.84387,1.3586c-0.09485,-0.15626 -0.18117,-0.30142 -0.25791,-0.4326c-0.11886,-0.20318 -0.23717,-0.40768 -0.35487,-0.6134c-1.9631,0.0087 -3.9262,0.01693 -5.88907,-0.00918c-1.93191,-0.0257 -3.97676,0.52426 -5.7948,-0.12971c-1.65624,-0.59576 -3.52606,-1.72118 -4.03496,-3.40614c-0.43406,-1.43714 -0.3399,-2.73944 0.11306,-3.93422c-5.0841,-0.00013 -10.1682,-0.00036 -15.2523,-0.00062c-2.15296,1.00292 -4.27801,1.77878 -5.454,1.83415c-1.38248,0.06509 -3.20239,0.46723 -4.34959,-0.15979zM108.13122,286.27011c0.51035,-0.1897 1.02414,-0.37468 1.54104,-0.55504c-0.45095,-0.57054 -0.69183,-1.16866 -0.77135,-1.8231c-0.03924,0.14451 -0.08589,0.2867 -0.14254,0.42558c-0.27904,0.68418 -0.60936,1.34494 -0.95512,1.99867c0.10927,-0.01553 0.2186,-0.0309 0.32796,-0.0461zM116.2209,273.85819c-1.86628,-1.46694 -4.79829,-1.08223 -6.9148,-1.07397c-3.33331,0.01299 -6.66667,0.00009 -10,0c-0.64303,-0.00002 -1.30109,-0.00966 -1.97051,-0.02509c0.36635,0.52406 0.7409,1.04285 1.11791,1.5599c1.95088,0.00143 3.90176,0.0035 5.8526,0.0035c4.05008,0 8.1133,-0.08072 12.1767,-0.24748c-0.08519,-0.07422 -0.17245,-0.14655 -0.2619,-0.21686zM63.84739,283.36883c9.99175,-0.79307 20.21435,-0.48732 29.70543,0.121c2.2272,0.14696 4.32435,0.20018 6.45339,0.73713c-1.38421,-1.55673 -2.76173,-3.16131 -4.06946,-4.81724c-3.46903,0.14277 -7.24548,0.36602 -10.3503,-0.10689c-1.75282,-0.26698 -3.79215,-0.34952 -5.08398,-1.56394c-1.05703,-0.99369 -1.4625,-2.45296 -1.90952,-3.88255c-5.73342,1.70791 -10.92394,5.01772 -14.74555,9.5125zM140.95303,304.21195c5.36863,0 10.69671,-0.18896 16.00425,-0.4994c1.42173,-0.72198 2.8514,-1.35882 4.29301,-1.97338c-8.22259,0.0015 -16.44518,0.00229 -24.66777,0.00263l-0.65662,1.96985c-0.01968,0.06399 -0.04186,0.12689 -0.06643,0.18858c0.04877,0.09679 0.09799,0.19468 0.14767,0.29374c1.64913,0.00869 3.29799,0.01798 4.94589,0.01798zM182.71964,301.52968c0.041,-0.29172 0.06911,-0.57362 0.06901,-0.83201c-0.94836,0.0585 -1.85889,0.0983 -2.66462,0.13789c-0.28594,0.17658 -0.57819,0.34762 -0.87715,0.51279c-0.33915,0.18737 -0.67639,0.40007 -1.01359,0.62388c1.49479,-0.14554 2.99009,-0.29356 4.48635,-0.44254zM196.05866,294.8622c0.07615,0.0059 0.15243,0.01096 0.22883,0.01513c0.63389,0.03457 3.50022,-0.00796 6.11296,-0.00919c0.17998,-0.11449 0.35929,-0.2357 0.53792,-0.36403c1.00761,-0.72389 0.85532,-2.36093 0.95413,-3.59767c0.05493,-0.68751 1.18597,-1.69148 0.56451,-1.99062c-1.00757,-0.485 -2.17032,0.58957 -3.28478,0.6812c-1.79779,0.14782 -3.60214,0.13565 -5.40773,0.09336c-0.08931,0.27723 -0.23034,0.5163 -0.38786,0.71722c1.18223,1.7417 1.24196,3.21547 0.68202,4.4546zM122.92425,295.66226c1.19908,-0.86684 2.41888,-1.68166 3.49462,-2.47106c-0.19695,-0.71576 -0.3941,-1.35993 -0.56162,-1.76082c-0.43585,0.05717 -0.8716,0.1159 -1.30724,0.17623c-0.63906,0.45591 -1.22392,0.9933 -1.9018,1.38885c-1.57363,0.91823 -3.12094,1.8883 -4.71184,2.77575c1.66374,-0.06419 3.32628,-0.09404 4.98788,-0.10895zM94.50153,311.71527c0.07439,0.17701 0.15057,0.35669 0.22852,0.53936c1.44696,3.39067 0.31114,4.30525 3.87369,5.0978c2.33639,0.51977 4.78565,-0.12119 7.17903,-0.14616c3.26732,-0.03408 6.53577,-0.19269 9.79088,-0.47695c4.87007,-0.42348 9.89855,-0.5556 14.73317,-1.27211c0.53592,-0.07943 1.07353,-0.16607 1.61254,-0.25935c-6.8931,-0.39202 -13.75972,-1.12784 -20.70535,-1.77394c-4.97921,-0.46318 -10.19325,-0.57825 -15.12182,-1.41377c-0.52991,-0.08983 -1.06019,-0.18862 -1.59066,-0.29489zM95.80282,288.63813c-0.97563,-0.07483 -1.91275,-0.11783 -2.5698,-0.15854c-10.80637,-0.69262 -22.31751,-0.85614 -33.39678,0.34014c-0.47824,1.8354 -0.41177,5.1337 0.82156,6.40341c0.87522,0.90104 2.27117,1.04314 3.44825,1.51644c7.71694,-0.00008 15.43389,-0.00044 23.15083,-0.00087c0.15804,-1.29063 0.50064,-2.53274 1.23034,-3.5522c1.816,-2.53711 4.48077,-3.76432 7.3156,-4.54837zM172.57492,284.4699c0.66592,0.00524 1.33185,0.01081 1.99777,0.0166c-0.21009,-0.77921 -0.38608,-1.58292 -0.55402,-2.39005c-0.34369,0.02299 -0.68711,0.04733 -1.0301,0.07393c-0.49108,0.03809 -0.98212,0.0759 -1.47313,0.11347c0.66436,0.56767 0.87361,1.40468 0.87361,1.40468c0.0649,0.26087 0.12678,0.52131 0.18587,0.78136zM182.53718,284.55712c0.10195,-0.25346 0.18865,-0.51526 0.26952,-0.78035c-1.04884,-0.26836 -2.09899,-0.56026 -3.15097,-0.86177c0.05808,0.22902 0.1164,0.4505 0.17544,0.66336c0.0856,0.3086 0.18436,0.63182 0.2993,0.95836c0.80228,0.00712 1.60452,0.01399 2.4067,0.0204zM182.36842,306.8277c-4.09804,0.49884 -8.19831,0.9932 -12.30293,1.40579c-0.41892,0.36063 -0.85121,0.68532 -1.29536,0.98008c0.53814,-0.06078 1.07587,-0.1257 1.61315,-0.19515c3.13678,-0.40547 6.36053,-0.34902 9.41727,-1.1615c0.87214,-0.23182 1.89958,-0.44587 2.56788,-1.02922zM87.33597,304.88499c-0.11461,-0.99515 -0.17898,-2.03352 -0.1957,-3.14455c-3.82306,-0.0002 -7.64611,-0.00039 -11.46917,-0.00054c0.6568,0.20376 1.33123,0.39268 2.02883,0.56459c3.1925,0.78673 6.40828,1.71407 9.63604,2.5805zM123.38595,301.74198c-0.86443,0.65533 -1.61264,1.4609 -1.50324,2.26963c0.04324,0.31968 0.58741,0.31741 0.90975,0.33004c1.40133,0.05488 2.80298,-0.10742 4.2052,-0.12971c1.08508,-0.01725 2.17062,-0.02644 3.25641,-0.03041c-0.38251,-0.80679 -0.75022,-1.62135 -1.10007,-2.43956c-1.92268,0.00002 -3.84536,0.00002 -5.76804,0zM136.47834,294.40338c0.06505,0.35621 0.13107,0.71228 0.1956,1.06857c1.77613,-0.08604 3.55202,-0.21639 5.32799,-0.41489c2.0631,-0.22923 4.1247,-0.46901 6.18264,-0.73222c-0.09537,-0.01915 -0.19072,-0.03835 -0.28607,-0.05761c-0.20879,0 -0.41758,0 -0.62636,0c-3.78474,0 -7.30548,-0.28737 -10.7938,0.13614zM55.74951,296.73959c-1.06305,-2.16209 -1.37785,-4.81322 -1.09479,-7.25273c-1.89014,0.28462 -3.76198,0.61392 -5.60963,0.99221c-3.04323,0.62308 -6.01835,1.58484 -8.92599,2.67804c-2.47211,0.92946 -4.69145,2.66627 -7.16381,3.65272c1.01499,-0.06192 2.03604,-0.05183 3.05303,-0.07024c1.66639,-0.03018 3.33333,0 5,0c4.91373,0 9.82746,0 14.74119,0zM167.4764,284.43872c-0.02855,-0.49687 0.0378,-1.29603 0.62786,-1.8972c-9.81482,0.73308 -19.61722,1.40569 -29.42766,2.32795c-1.28305,0.11941 -2.56662,0.26252 -3.84941,0.42858c-0.16798,0.06333 -0.3355,0.12715 -0.50264,0.19135c11.01568,-0.94903 22.07964,-1.09427 33.15185,-1.05068zM104.4613,280.92756c0.26561,-0.57987 0.55844,-1.13585 0.89422,-1.63737c-0.87353,0.00974 -1.74713,0.01711 -2.6208,0.02233c0.58418,0.5343 1.17275,1.06399 1.72658,1.61504zM114.16663,283.02474c0.37274,0.24965 0.88105,-0.17134 1.31703,-0.27708c1.11754,-0.27105 2.23998,-0.52685 3.34267,-0.85308c0.77733,-0.22997 1.57106,-0.52016 2.37527,-0.83685c-0.54413,-0.67019 -1.00138,-1.41587 -1.43486,-2.18042c-2.37876,0.116 -4.75875,0.20527 -7.13964,0.27234c0.38243,1.37888 0.44492,3.14194 1.53954,3.87509zM129.44465,278.24598c-1.26404,0.10479 -2.52856,0.20028 -3.7935,0.28713c0.1783,0.18211 0.36527,0.36177 0.55962,0.53948c1.08526,-0.37516 2.16774,-0.67652 3.23388,-0.82661zM136.03596,279.62466c0,0.13075 -0.01004,0.25915 -0.02938,0.38448c4.62806,-1.62891 9.27119,-3.20565 14.05248,-4.33601c-4.1641,0.60158 -8.32034,1.27535 -12.51032,1.76596c-0.80228,0.09394 -1.6048,0.18352 -2.40753,0.26893c0.54698,0.4586 0.89476,1.147 0.89476,1.91664zM83.80231,273.98241c0.53927,0.60767 1.59913,0.32093 2.41064,0.35982c1.56047,0.07478 3.12449,-0.0159 4.68675,-0.0197c0.46952,-0.00114 0.93904,-0.00205 1.40856,-0.00275c-0.36239,-0.5767 -0.71058,-1.15928 -1.04236,-1.74787c-2.75193,-0.06369 -5.51375,-0.04377 -8.06699,0.28928c0.13192,0.41321 0.31559,0.7969 0.60339,1.12121zM145.90894,309.52237c0.21923,-0.07912 0.4284,-0.15577 0.62855,-0.23033c-2.69568,-0.01794 -5.392,-0.05517 -8.0837,-0.07178c0.30811,0.49244 0.63067,0.92602 0.96094,1.24524c1.44635,0.01975 2.89731,0.01652 4.35504,-0.01424c0.7269,-0.31839 1.44763,-0.6793 2.13918,-0.92889zM170.81721,273.59056c-1.19854,-0.44932 -2.53188,0.3901 -3.80686,0.5032c-1.07418,0.09529 -2.15167,0.14468 -3.22926,0.19271c2.89324,0.26035 5.73099,0.87154 8.54896,1.6124c-0.3556,-0.88642 -0.65112,-1.98527 -1.51283,-2.30831z"/><path d="M331.55337,251.30119c-2.5,0 -2.5,-2.5 -2.5,-2.5v-0.93404c0,-5.69731 0.7319,-11.85898 0.01217,-17.5005c-1.81103,-14.19554 -2.8143,-28.84151 -2.8143,-43.21239c0,0 0,-2.5 2.5,-2.5c2.5,0 2.5,2.5 2.5,2.5c0,14.22741 1.06655,28.66099 2.78997,42.7197c0.71395,5.824 0.01217,12.11992 0.01217,17.99319v0.93404c0,0 0,2.5 -2.5,2.5z"/><path d="M412.5131,239.46075c0,1.42724 -0.8148,2.03967 -1.51407,2.30247c-0.17892,0.61818 -0.3796,1.22622 -0.70459,1.77637c-1.2528,2.12074 -3.59431,3.60491 -4.41036,5.92894c-0.28005,0.79757 0.19981,1.70185 0.05843,2.53525c-0.65656,3.8703 -2.77104,7.67086 -3.78765,11.44975c-1.61447,6.00121 -3.86038,11.55325 -6.83597,17.12269c-2.62594,4.20256 -5.39437,9.13085 -8.66368,12.86c-4.46029,5.08765 -10.70085,7.61662 -16.16308,11.28344c-1.56064,1.04767 -2.76417,2.6625 -4.48565,3.4173c-2.53413,1.11112 -5.53285,0.14095 -8.29987,0.14093c-1.07803,-0.00001 -9.21609,0.03364 -9.99495,-0.11486c-6.58827,-1.25607 -12.93711,-5.19747 -18.96241,-7.85721c-1.55451,-0.68621 -3.2876,-0.91515 -4.83257,-1.62259c-0.9519,-0.43588 -1.60176,-1.43149 -2.59029,-1.77635c-2.87793,-1.00399 -6.11183,-0.44651 -9.06474,-1.20205c-1.70609,-0.43653 -3.29515,-1.24382 -4.94273,-1.86574c-8.74082,-3.32984 -17.74149,-6.32764 -26.31327,-10.0745c-3.87269,-1.69282 -7.44731,-4.15881 -11.2306,-6.04207c-1.55928,-0.77618 -3.26534,-1.26875 -4.74639,-2.18542c-2.26376,-1.40112 -3.99101,-3.52727 -6.06234,-5.1998c-7.10607,-5.73789 -12.6482,-12.70419 -18.14716,-20.03614c0,0 -1.5,-2 0.5,-3.5c2,-1.5 3.5,0.5 3.5,0.5c5.26799,7.02398 10.55224,13.6972 17.34652,19.19373c1.88553,1.52538 3.41268,3.51931 5.48253,4.78333c12.81307,7.82474 27.48777,12.56922 41.4507,17.88843c1.46738,0.56474 2.87891,1.30448 4.40215,1.69422c1.63859,0.41926 8.06175,0.84775 9.59842,1.37094c1.13443,0.38624 1.92376,1.4623 3.01398,1.95983c1.48662,0.67844 3.15912,0.88025 4.65426,1.53969c5.67143,2.5014 11.67348,6.3297 17.87089,7.51836c0.19946,0.03826 9.01902,0.02819 9.06802,0.02818c1.55674,-0.00001 3.11383,-0.03301 4.67022,0c0.65973,0.01399 1.38618,0.43958 1.97462,0.14093c1.29733,-0.65844 2.12791,-2.00002 3.32304,-2.82965c5.05942,-3.51213 11.09165,-5.70625 15.2581,-10.49094c3.0434,-3.49499 5.60645,-8.10148 8.06111,-12.03056c2.77429,-5.13955 4.86176,-10.36786 6.32866,-15.8975c0.94865,-3.57605 3.08534,-7.30275 3.68471,-10.96732c0.16516,-1.00977 -0.29782,-2.10984 0.05843,-3.06901c1.49577,-4.02722 4.46678,-5.64013 5.64185,-9.46368l3.30575,-1.70943c0,0 2.5,0 2.5,2.5z"/><path d="M370.78323,229.81817c-1.48852,0 -2.09076,-0.88627 -2.33442,-1.60343c-0.10696,-0.27831 -0.16558,-0.58059 -0.16558,-0.89657v-1.86809c0,-4.68384 0.69979,-10.00159 0.01873,-14.63925c-0.55665,-3.79054 -0.95278,-6.69363 -0.95278,-10.57995c0,0 0,-2.5 2.5,-2.5c2.5,0 2.5,2.5 2.5,2.5c0,3.79477 0.39999,6.26746 0.91531,9.96903c0.67771,4.86799 0.01873,10.34105 0.01873,15.25017v1.86809c0,0.31597 -0.05862,0.61826 -0.16558,0.89657c-0.24366,0.71716 -0.84591,1.60343 -2.33442,1.60343z"/></g></g></svg>